<svg width="223" height="230" viewBox="0 0 223 230" fill="none" xmlns="http://www.w3.org/2000/svg">
<path d="M115.865 113.578C117.03 114.457 117.757 115.439 118.046 116.524C118.341 117.612 118.151 118.603 117.477 119.496C116.806 120.385 115.971 120.859 114.971 120.92L118.928 123.906L117.949 125.203L107.173 117.071L108.073 115.879L108.934 116.43C108.69 115.431 108.917 114.468 109.616 113.542C110.28 112.663 111.181 112.216 112.322 112.203C113.459 112.195 114.607 112.629 115.767 113.504L115.865 113.578ZM114.738 114.765C113.878 114.115 113.07 113.785 112.315 113.773C111.561 113.761 110.947 114.069 110.474 114.696C109.853 115.519 109.769 116.399 110.222 117.335L113.708 119.967C114.717 120.118 115.525 119.792 116.132 118.988C116.612 118.352 116.74 117.67 116.518 116.944C116.295 116.218 115.702 115.492 114.738 114.765Z" fill="black"/>
<path d="M48.233 173.471C48.3477 174.292 49.1058 174.864 49.9262 174.749L63.2961 172.879C64.1166 172.765 64.6887 172.007 64.574 171.186C64.4593 170.366 63.7012 169.794 62.8807 169.908L50.9963 171.57L49.3346 159.686C49.2199 158.865 48.4618 158.293 47.6413 158.408C46.8209 158.523 46.2488 159.281 46.3635 160.101L48.233 173.471ZM149.301 38.8164L48.5212 172.36L50.9158 174.167L151.695 40.6235L149.301 38.8164Z" fill="black"/>
</svg>
