<svg width="150" height="150" viewBox="0 0 150 150" fill="none" xmlns="http://www.w3.org/2000/svg">
<path d="M78.2812 63.3506C78.2812 64.8037 77.9473 65.9727 77.2793 66.8574C76.6113 67.7363 75.7148 68.1758 74.5898 68.1758C73.3887 68.1758 72.46 67.751 71.8037 66.9014L71.7246 68H70.2305V54.5H71.8564V59.5361C72.5127 58.7217 73.418 58.3145 74.5723 58.3145C75.7266 58.3145 76.6318 58.751 77.2881 59.624C77.9502 60.4971 78.2812 61.6924 78.2812 63.21V63.3506ZM76.6553 63.166C76.6553 62.0586 76.4414 61.2031 76.0137 60.5996C75.5859 59.9961 74.9707 59.6943 74.168 59.6943C73.0957 59.6943 72.3252 60.1924 71.8564 61.1885V65.3018C72.3545 66.2979 73.1309 66.7959 74.1855 66.7959C74.9648 66.7959 75.5713 66.4941 76.0049 65.8906C76.4385 65.2871 76.6553 64.3789 76.6553 63.166Z" fill="black"/>
<path d="M117.067 76.0607C117.652 75.4749 117.652 74.5251 117.067 73.9393L107.521 64.3934C106.935 63.8076 105.985 63.8076 105.399 64.3934C104.814 64.9792 104.814 65.9289 105.399 66.5147L113.885 75L105.399 83.4853C104.814 84.0711 104.814 85.0208 105.399 85.6066C105.985 86.1924 106.935 86.1924 107.521 85.6066L117.067 76.0607ZM33 76.5H116.006V73.5H33V76.5Z" fill="black"/>
</svg>
