<svg width="150" height="150" viewBox="0 0 150 150" fill="none" xmlns="http://www.w3.org/2000/svg">
<path d="M76.1016 68C76.0078 67.8125 75.9316 67.4785 75.873 66.998C75.1172 67.7832 74.2148 68.1758 73.166 68.1758C72.2285 68.1758 71.458 67.9121 70.8545 67.3848C70.2568 66.8516 69.958 66.1777 69.958 65.3633C69.958 64.373 70.333 63.6055 71.083 63.0605C71.8389 62.5098 72.8994 62.2344 74.2646 62.2344H75.8467V61.4873C75.8467 60.9189 75.6768 60.4678 75.3369 60.1338C74.9971 59.7939 74.4961 59.624 73.834 59.624C73.2539 59.624 72.7676 59.7705 72.375 60.0635C71.9824 60.3564 71.7861 60.7109 71.7861 61.127H70.1514C70.1514 60.6523 70.3184 60.1953 70.6523 59.7559C70.9922 59.3105 71.4492 58.959 72.0234 58.7012C72.6035 58.4434 73.2393 58.3145 73.9307 58.3145C75.0264 58.3145 75.8848 58.5898 76.5059 59.1406C77.127 59.6855 77.4492 60.4385 77.4727 61.3994V65.7764C77.4727 66.6494 77.584 67.3438 77.8066 67.8594V68H76.1016ZM73.4033 66.7607C73.9131 66.7607 74.3965 66.6289 74.8535 66.3652C75.3105 66.1016 75.6416 65.7588 75.8467 65.3369V63.3857H74.5723C72.5801 63.3857 71.584 63.9688 71.584 65.1348C71.584 65.6445 71.7539 66.043 72.0938 66.3301C72.4336 66.6172 72.8701 66.7607 73.4033 66.7607Z" fill="black"/>
<path d="M117.067 76.0607C117.652 75.4749 117.652 74.5251 117.067 73.9393L107.521 64.3934C106.935 63.8076 105.985 63.8076 105.399 64.3934C104.814 64.9792 104.814 65.9289 105.399 66.5147L113.885 75L105.399 83.4853C104.814 84.0711 104.814 85.0208 105.399 85.6066C105.985 86.1924 106.935 86.1924 107.521 85.6066L117.067 76.0607ZM33 76.5H116.006V73.5H33V76.5Z" fill="black"/>
</svg>
