<svg width="227" height="230" viewBox="0 0 227 230" fill="none" xmlns="http://www.w3.org/2000/svg">
<path d="M113.307 118.031C113.386 117.837 113.588 117.56 113.911 117.2C112.822 117.147 111.933 116.726 111.243 115.937C110.626 115.231 110.317 114.477 110.317 113.676C110.325 112.875 110.635 112.207 111.249 111.67C111.994 111.019 112.819 110.796 113.723 111.002C114.635 111.208 115.54 111.826 116.439 112.854L117.48 114.045L118.042 113.553C118.47 113.179 118.698 112.754 118.726 112.278C118.758 111.799 118.556 111.31 118.121 110.811C117.739 110.375 117.308 110.105 116.83 110.002C116.351 109.899 115.954 109.985 115.641 110.259L114.565 109.028C114.923 108.716 115.377 108.54 115.927 108.503C116.486 108.465 117.052 108.578 117.624 108.841C118.2 109.108 118.715 109.502 119.17 110.022C119.891 110.847 120.249 111.675 120.243 112.505C120.242 113.331 119.887 114.069 119.179 114.719L115.884 117.6C115.226 118.175 114.777 118.715 114.535 119.222L114.429 119.315L113.307 118.031ZM112.464 115.184C112.8 115.568 113.217 115.845 113.716 116.016C114.216 116.186 114.692 116.21 115.144 116.087L116.613 114.802L115.774 113.843C114.463 112.343 113.369 111.977 112.491 112.744C112.107 113.08 111.919 113.47 111.926 113.915C111.934 114.36 112.113 114.783 112.464 115.184Z" fill="black"/>
<path d="M47.7073 59.6304C46.8807 59.575 46.1657 60.2001 46.1102 61.0266L45.2061 74.4963C45.1506 75.3229 45.7757 76.0379 46.6022 76.0934C47.4288 76.1489 48.1438 75.5238 48.1993 74.6972L49.003 62.7242L60.976 63.5278C61.8026 63.5833 62.5177 62.9582 62.5731 62.1317C62.6286 61.3051 62.0035 60.59 61.177 60.5346L47.7073 59.6304ZM46.4775 62.1143L156.59 188.073L158.849 186.098L48.7361 60.1398L46.4775 62.1143Z" fill="black"/>
</svg>
