<svg width="139" height="132" viewBox="0 0 139 132" fill="none" xmlns="http://www.w3.org/2000/svg">
<path d="M72.4621 49.1314C68.3528 48.8575 64.3007 49.7785 60.7381 51.7959C57.5917 53.5294 54.9288 56.0847 52.9853 59.2356C51.4775 61.6813 50.5035 64.4737 50.1315 67.4173C49.8857 69.316 49.9399 71.2593 50.2921 73.1675C50.5597 74.4955 50.8622 75.1829 50.9578 75.1637C51.2365 75.0785 50.4825 72.1894 51.4195 67.6134C51.9688 64.9347 53.0231 62.4258 54.5194 60.2364C56.4144 57.502 58.9108 55.3166 61.8031 53.8601C64.9986 52.1793 68.5995 51.4758 72.2235 51.8241C75.7519 52.0918 79.1459 53.6184 81.8583 56.1576C83.0457 57.3104 84.0176 58.6934 84.7177 60.2265C85.4179 61.7597 85.8323 63.4125 85.9371 65.0894C85.9609 68.1314 85.0558 71.0547 83.3586 73.4168C81.9865 75.4427 80.3437 77.2376 78.4792 78.7481C77.097 79.8747 75.636 80.8894 74.1076 81.7845C72.3965 82.7548 70.6353 83.627 68.8311 84.3975L68.6875 84.4414C68.8687 83.8261 69.2502 82.8996 69.4456 82.2099C69.8078 81.0993 70.0967 80.0811 70.3121 79.2153C70.7092 77.4941 70.8126 76.3526 70.4613 76.17C70.1101 75.9875 69.4134 76.9404 68.5497 78.4943C68.115 79.2771 67.6463 80.2203 67.1576 81.2796C66.9147 81.8138 66.6857 82.4238 66.423 82.954C66.2628 83.3124 66.1331 83.6867 66.0355 84.0724C65.9163 84.5886 65.9182 85.1337 66.041 85.6605C66.3116 86.6087 66.915 87.4221 67.7217 87.9264C68.3051 88.3046 68.921 88.6189 69.5596 88.8643C70.5708 89.3088 71.6188 89.6387 72.6858 89.8483C74.5277 90.165 75.6927 89.9288 75.7496 89.6015C75.8065 89.2741 74.7807 88.7878 73.2462 88.0571C72.4789 87.6918 71.5796 87.2568 70.6101 86.7133L70.1521 86.4534C72.0212 86.0113 73.825 85.3323 75.5259 84.4305C77.2725 83.537 78.9301 82.4678 80.4773 81.2369C82.6286 79.5541 84.5166 77.5242 86.0782 75.215C87.0277 73.7973 87.7947 72.2452 88.3599 70.5979C88.9395 68.7978 89.1838 66.8798 89.0795 64.9485C88.9295 62.8818 88.3931 60.8499 87.5022 58.9735C86.6113 57.097 85.384 55.4144 83.8933 54.0256C80.633 51.0808 76.582 49.3616 72.403 49.1495" fill="black"/>
<path d="M89.8923 52.8486C90.4724 52.8486 90.9792 52.6729 91.4128 52.3213C91.8464 51.9697 92.0867 51.5303 92.1335 51.0029H93.6716C93.6423 51.5479 93.4548 52.0664 93.1091 52.5586C92.7634 53.0508 92.3005 53.4434 91.7205 53.7363C91.1462 54.0293 90.5369 54.1758 89.8923 54.1758C88.5974 54.1758 87.5662 53.7451 86.7986 52.8838C86.0369 52.0166 85.656 50.833 85.656 49.333V49.0605C85.656 48.1348 85.8259 47.3115 86.1658 46.5908C86.5056 45.8701 86.9919 45.3105 87.6248 44.9121C88.2634 44.5137 89.0164 44.3145 89.8835 44.3145C90.95 44.3145 91.8347 44.6338 92.5378 45.2725C93.2468 45.9111 93.6248 46.7402 93.6716 47.7598H92.1335C92.0867 47.1445 91.8523 46.6406 91.4304 46.248C91.0144 45.8496 90.4988 45.6504 89.8835 45.6504C89.0574 45.6504 88.4158 45.9492 87.9587 46.5469C87.5076 47.1387 87.282 47.9971 87.282 49.1221V49.4297C87.282 50.5254 87.5076 51.3691 87.9587 51.9609C88.4099 52.5527 89.0544 52.8486 89.8923 52.8486Z" fill="black"/>
</svg>
