<svg width="179" height="163" viewBox="0 0 179 163" fill="none" xmlns="http://www.w3.org/2000/svg">
<path d="M83.8169 67.1663C83.8169 65.7073 84.1626 64.5354 84.854 63.6506C85.5454 62.76 86.4507 62.3147 87.5698 62.3147C88.6831 62.3147 89.5649 62.6956 90.2153 63.4573V58.5002H91.8413V72.0002H90.3472L90.2681 70.9807C89.6177 71.7776 88.7124 72.176 87.5522 72.176C86.4507 72.176 85.5513 71.7248 84.854 70.8225C84.1626 69.9202 83.8169 68.7424 83.8169 67.2893V67.1663ZM85.4429 67.3508C85.4429 68.4289 85.6655 69.2727 86.1108 69.8821C86.5562 70.4914 87.1714 70.7961 87.9565 70.7961C88.9878 70.7961 89.7407 70.3332 90.2153 69.4075V65.0393C89.729 64.1428 88.9819 63.6946 87.9741 63.6946C87.1772 63.6946 86.5562 64.0022 86.1108 64.6174C85.6655 65.2327 85.4429 66.1438 85.4429 67.3508Z" fill="black"/>
<path d="M31.1018 147.236C31.1268 148.064 31.8183 148.715 32.6463 148.69L46.1402 148.284C46.9682 148.259 47.6193 147.567 47.5943 146.739C47.5694 145.911 46.8779 145.26 46.0498 145.285L34.0553 145.646L33.6939 133.652C33.6689 132.824 32.9774 132.173 32.1494 132.198C31.3213 132.223 30.6703 132.914 30.6952 133.742L31.1018 147.236ZM156.908 12.9718L31.509 146.163L33.6933 148.219L159.092 15.0282L156.908 12.9718Z" fill="black"/>
</svg>
