<svg width="144" height="179" viewBox="0 0 144 179" fill="none" xmlns="http://www.w3.org/2000/svg">
<path d="M90.7276 50.6964C92.1866 50.6964 93.3585 51.0421 94.2432 51.7335C95.1338 52.4249 95.5792 53.3302 95.5792 54.4493C95.5792 55.5626 95.1983 56.4445 94.4366 57.0948L99.3936 57.0948L99.3936 58.7208L85.8936 58.7208L85.8936 57.2267L86.9131 57.1476C86.1163 56.4972 85.7178 55.5919 85.7178 54.4318C85.7178 53.3302 86.169 52.4308 87.0713 51.7335C87.9737 51.0421 89.1514 50.6964 90.6046 50.6964L90.7276 50.6964ZM90.543 52.3224C89.4649 52.3224 88.6212 52.545 88.0118 52.9904C87.4024 53.4357 87.0977 54.0509 87.0977 54.8361C87.0977 55.8673 87.5606 56.6202 88.4864 57.0948L92.8546 57.0948C93.751 56.6085 94.1993 55.8615 94.1993 54.8536C94.1993 54.0568 93.8917 53.4357 93.2764 52.9904C92.6612 52.545 91.7501 52.3224 90.543 52.3224Z" fill="black"/>
<path d="M70.8526 107.935C71.4381 108.521 72.3878 108.522 72.9739 107.936L82.5249 98.3952C83.111 97.8098 83.1115 96.86 82.526 96.2739C81.9405 95.6878 80.9908 95.6873 80.4047 96.2728L71.9149 104.754L63.4341 96.2639C62.8486 95.6778 61.8989 95.6773 61.3128 96.2628C60.7267 96.8483 60.7262 97.798 61.3117 98.3841L70.8526 107.935ZM70.4679 3.92991L70.4138 106.874L73.4138 106.876L73.4679 3.93148L70.4679 3.92991Z" fill="black"/>
</svg>
