<svg width="179" height="163" viewBox="0 0 179 163" fill="none" xmlns="http://www.w3.org/2000/svg">
<path d="M92.8876 73.6033C92.7938 73.4158 92.7176 73.0818 92.659 72.6013C91.9032 73.3865 91.0008 73.779 89.952 73.779C89.0145 73.779 88.244 73.5154 87.6405 72.988C87.0428 72.4548 86.744 71.781 86.744 70.9665C86.744 69.9763 87.119 69.2087 87.869 68.6638C88.6249 68.113 89.6854 67.8376 91.0507 67.8376H92.6327V67.0906C92.6327 66.5222 92.4628 66.071 92.1229 65.737C91.7831 65.3972 91.2821 65.2273 90.62 65.2273C90.0399 65.2273 89.5536 65.3738 89.161 65.6667C88.7684 65.9597 88.5721 66.3142 88.5721 66.7302H86.9374C86.9374 66.2556 87.1044 65.7986 87.4384 65.3591C87.7782 64.9138 88.2352 64.5622 88.8094 64.3044C89.3895 64.0466 90.0253 63.9177 90.7167 63.9177C91.8124 63.9177 92.6708 64.1931 93.2919 64.7439C93.913 65.2888 94.2352 66.0417 94.2587 67.0027V71.3796C94.2587 72.2527 94.37 72.947 94.5926 73.4626V73.6033H92.8876ZM90.1893 72.364C90.6991 72.364 91.1825 72.2322 91.6395 71.9685C92.0965 71.7048 92.4276 71.362 92.6327 70.9402V68.989H91.3583C89.3661 68.989 88.37 69.572 88.37 70.738C88.37 71.2478 88.5399 71.6462 88.8798 71.9333C89.2196 72.2204 89.6561 72.364 90.1893 72.364Z" fill="black"/>
<path d="M22.0371 13.5004C21.209 13.4799 20.521 14.1347 20.5005 14.9629L20.1665 28.4587C20.146 29.2869 20.8007 29.9749 21.6289 29.9954C22.4571 30.0159 23.1451 29.3611 23.1656 28.5329L23.4624 16.5366L35.4588 16.8335C36.2869 16.854 36.9749 16.1993 36.9954 15.3711C37.0159 14.5429 36.3612 13.8549 35.533 13.8344L22.0371 13.5004ZM151.294 148.68L23.0866 13.9659L20.9134 16.0341L149.121 150.748L151.294 148.68Z" fill="black"/>
</svg>
