<svg width="150" height="150" viewBox="0 0 150 150" fill="none" xmlns="http://www.w3.org/2000/svg">
<path d="M74.0449 66.8486C74.625 66.8486 75.1318 66.6729 75.5654 66.3213C75.999 65.9697 76.2393 65.5303 76.2861 65.0029H77.8242C77.7949 65.5479 77.6074 66.0664 77.2617 66.5586C76.916 67.0508 76.4531 67.4434 75.873 67.7363C75.2988 68.0293 74.6895 68.1758 74.0449 68.1758C72.75 68.1758 71.7188 67.7451 70.9512 66.8838C70.1895 66.0166 69.8086 64.833 69.8086 63.333V63.0605C69.8086 62.1348 69.9785 61.3115 70.3184 60.5908C70.6582 59.8701 71.1445 59.3105 71.7773 58.9121C72.416 58.5137 73.1689 58.3145 74.0361 58.3145C75.1025 58.3145 75.9873 58.6338 76.6904 59.2725C77.3994 59.9111 77.7773 60.7402 77.8242 61.7598H76.2861C76.2393 61.1445 76.0049 60.6406 75.583 60.248C75.167 59.8496 74.6514 59.6504 74.0361 59.6504C73.21 59.6504 72.5684 59.9492 72.1113 60.5469C71.6602 61.1387 71.4346 61.9971 71.4346 63.1221V63.4297C71.4346 64.5254 71.6602 65.3691 72.1113 65.9609C72.5625 66.5527 73.207 66.8486 74.0449 66.8486Z" fill="black"/>
<path d="M117.067 76.0607C117.652 75.4749 117.652 74.5251 117.067 73.9393L107.521 64.3934C106.935 63.8076 105.985 63.8076 105.399 64.3934C104.814 64.9792 104.814 65.9289 105.399 66.5147L113.885 75L105.399 83.4853C104.814 84.0711 104.814 85.0208 105.399 85.6066C105.985 86.1924 106.935 86.1924 107.521 85.6066L117.067 76.0607ZM33 76.5H116.006V73.5H33V76.5Z" fill="black"/>
</svg>
