<svg width="150" height="150" viewBox="0 0 150 150" fill="none" xmlns="http://www.w3.org/2000/svg">
<circle cx="75" cy="75" r="34.5" stroke="black"/>
<path d="M64.835 76.166C64.835 74.6719 65.1777 73.4912 65.8633 72.624C66.5488 71.751 67.4688 71.3145 68.623 71.3145C69.748 71.3145 70.6357 71.6924 71.2861 72.4482L71.3564 71.4902H72.8506V84.6562H71.2246V80.1211C70.5684 80.8242 69.6953 81.1758 68.6055 81.1758C67.457 81.1758 66.54 80.7305 65.8545 79.8398C65.1748 78.9434 64.835 77.7568 64.835 76.2803V76.166ZM66.4609 76.3506C66.4609 77.4404 66.6895 78.2959 67.1465 78.917C67.6094 79.5381 68.2305 79.8486 69.0098 79.8486C69.9766 79.8486 70.7148 79.4209 71.2246 78.5654V73.9072C70.709 73.0693 69.9766 72.6504 69.0273 72.6504C68.2422 72.6504 67.6182 72.9639 67.1553 73.5908C66.6924 74.2119 66.4609 75.1318 66.4609 76.3506ZM77.6582 73.8105H78.8799C79.6475 73.7988 80.251 73.5967 80.6904 73.2041C81.1299 72.8115 81.3496 72.2812 81.3496 71.6133C81.3496 70.1133 80.6025 69.3633 79.1084 69.3633C78.4053 69.3633 77.8428 69.5654 77.4209 69.9697C77.0049 70.3682 76.7969 70.8984 76.7969 71.5605H75.1709C75.1709 70.5469 75.54 69.7061 76.2783 69.0381C77.0225 68.3643 77.9658 68.0273 79.1084 68.0273C80.3154 68.0273 81.2617 68.3467 81.9473 68.9854C82.6328 69.624 82.9756 70.5117 82.9756 71.6484C82.9756 72.2051 82.7939 72.7441 82.4307 73.2656C82.0732 73.7871 81.584 74.1768 80.9629 74.4346C81.666 74.6572 82.208 75.0264 82.5889 75.542C82.9756 76.0576 83.1689 76.6875 83.1689 77.4316C83.1689 78.5801 82.7939 79.4912 82.0439 80.165C81.2939 80.8389 80.3184 81.1758 79.1172 81.1758C77.916 81.1758 76.9375 80.8506 76.1816 80.2002C75.4316 79.5498 75.0566 78.6914 75.0566 77.625H76.6914C76.6914 78.2988 76.9111 78.8379 77.3506 79.2422C77.79 79.6465 78.3789 79.8486 79.1172 79.8486C79.9023 79.8486 80.5029 79.6436 80.9189 79.2334C81.335 78.8232 81.543 78.2344 81.543 77.4668C81.543 76.7227 81.3145 76.1514 80.8574 75.7529C80.4004 75.3545 79.7412 75.1494 78.8799 75.1377H77.6582V73.8105Z" fill="black"/>
</svg>
