<svg width="150" height="150" viewBox="0 0 150 150" fill="none" xmlns="http://www.w3.org/2000/svg">
<circle cx="75" cy="75" r="34.5" stroke="black"/>
<path d="M64.835 76.166C64.835 74.6719 65.1777 73.4912 65.8633 72.624C66.5488 71.751 67.4688 71.3145 68.623 71.3145C69.748 71.3145 70.6357 71.6924 71.2861 72.4482L71.3564 71.4902H72.8506V84.6562H71.2246V80.1211C70.5684 80.8242 69.6953 81.1758 68.6055 81.1758C67.457 81.1758 66.54 80.7305 65.8545 79.8398C65.1748 78.9434 64.835 77.7568 64.835 76.2803V76.166ZM66.4609 76.3506C66.4609 77.4404 66.6895 78.2959 67.1465 78.917C67.6094 79.5381 68.2305 79.8486 69.0098 79.8486C69.9766 79.8486 70.7148 79.4209 71.2246 78.5654V73.9072C70.709 73.0693 69.9766 72.6504 69.0273 72.6504C68.2422 72.6504 67.6182 72.9639 67.1553 73.5908C66.6924 74.2119 66.4609 75.1318 66.4609 76.3506ZM80.6377 81H79.0029V70.1631L75.7246 71.3672V69.8906L80.3828 68.1416H80.6377V81Z" fill="black"/>
</svg>
