<svg width="150" height="150" viewBox="0 0 150 150" fill="none" xmlns="http://www.w3.org/2000/svg">
<circle cx="75" cy="75" r="34.5" stroke="black"/>
<path d="M64.835 76.166C64.835 74.6719 65.1777 73.4912 65.8633 72.624C66.5488 71.751 67.4688 71.3145 68.623 71.3145C69.748 71.3145 70.6357 71.6924 71.2861 72.4482L71.3564 71.4902H72.8506V84.6562H71.2246V80.1211C70.5684 80.8242 69.6953 81.1758 68.6055 81.1758C67.457 81.1758 66.54 80.7305 65.8545 79.8398C65.1748 78.9434 64.835 77.7568 64.835 76.2803V76.166ZM66.4609 76.3506C66.4609 77.4404 66.6895 78.2959 67.1465 78.917C67.6094 79.5381 68.2305 79.8486 69.0098 79.8486C69.9766 79.8486 70.7148 79.4209 71.2246 78.5654V73.9072C70.709 73.0693 69.9766 72.6504 69.0273 72.6504C68.2422 72.6504 67.6182 72.9639 67.1553 73.5908C66.6924 74.2119 66.4609 75.1318 66.4609 76.3506ZM83.6787 81H75.2939V79.8311L79.7236 74.9092C80.3799 74.165 80.8311 73.5615 81.0771 73.0986C81.3291 72.6299 81.4551 72.1465 81.4551 71.6484C81.4551 70.9805 81.2529 70.4326 80.8486 70.0049C80.4443 69.5771 79.9053 69.3633 79.2314 69.3633C78.4229 69.3633 77.793 69.5947 77.3418 70.0576C76.8965 70.5146 76.6738 71.1533 76.6738 71.9736H75.0479C75.0479 70.7959 75.4258 69.8438 76.1816 69.1172C76.9434 68.3906 77.96 68.0273 79.2314 68.0273C80.4209 68.0273 81.3613 68.3408 82.0527 68.9678C82.7441 69.5889 83.0898 70.418 83.0898 71.4551C83.0898 72.7148 82.2871 74.2148 80.6816 75.9551L77.2539 79.6729H83.6787V81Z" fill="black"/>
</svg>
