<svg width="150" height="150" viewBox="0 0 150 150" fill="none" xmlns="http://www.w3.org/2000/svg">
<circle cx="75" cy="75" r="34.5" stroke="black"/>
<circle cx="75" cy="75" r="29.5" stroke="black"/>
<path d="M64.835 76.166C64.835 74.6719 65.1777 73.4912 65.8633 72.624C66.5488 71.751 67.4688 71.3145 68.623 71.3145C69.748 71.3145 70.6357 71.6924 71.2861 72.4482L71.3564 71.4902H72.8506V84.6562H71.2246V80.1211C70.5684 80.8242 69.6953 81.1758 68.6055 81.1758C67.457 81.1758 66.54 80.7305 65.8545 79.8398C65.1748 78.9434 64.835 77.7568 64.835 76.2803V76.166ZM66.4609 76.3506C66.4609 77.4404 66.6895 78.2959 67.1465 78.917C67.6094 79.5381 68.2305 79.8486 69.0098 79.8486C69.9766 79.8486 70.7148 79.4209 71.2246 78.5654V73.9072C70.709 73.0693 69.9766 72.6504 69.0273 72.6504C68.2422 72.6504 67.6182 72.9639 67.1553 73.5908C66.6924 74.2119 66.4609 75.1318 66.4609 76.3506ZM83.3184 75.542C83.3184 77.4463 82.9932 78.8613 82.3428 79.7871C81.6924 80.7129 80.6758 81.1758 79.293 81.1758C77.9277 81.1758 76.917 80.7246 76.2607 79.8223C75.6045 78.9141 75.2646 77.5605 75.2412 75.7617V73.5908C75.2412 71.71 75.5664 70.3125 76.2168 69.3984C76.8672 68.4844 77.8867 68.0273 79.2754 68.0273C80.6523 68.0273 81.666 68.4697 82.3164 69.3545C82.9668 70.2334 83.3008 71.5928 83.3184 73.4326V75.542ZM81.6924 73.3184C81.6924 71.9414 81.499 70.9395 81.1123 70.3125C80.7256 69.6797 80.1133 69.3633 79.2754 69.3633C78.4434 69.3633 77.8369 69.6768 77.4561 70.3037C77.0752 70.9307 76.8789 71.8945 76.8672 73.1953V75.7969C76.8672 77.1797 77.0664 78.2021 77.4648 78.8643C77.8691 79.5205 78.4785 79.8486 79.293 79.8486C80.0957 79.8486 80.6904 79.5381 81.0771 78.917C81.4697 78.2959 81.6748 77.3174 81.6924 75.9814V73.3184Z" fill="black"/>
</svg>
